<svg id="Layer_1" data-name="Layer 1" fill="#3a3a3a" xmlns="http://www.w3.org/2000/svg" viewBox="0 0 1920 1080"><path fill="#3a3a3a" d="M238.59,403.17H120.89V372.55h270.8v30.62H274V707.45h-35.4Z"/><path fill="#3a3a3a" d="M661.53,372.55H626.6L473.5,707.45h36.84L550.53,618h.05a2.89,2.89,0,0,1,.27-.37c1-2.33,2.26-4.56,3.38-6.85s2.33-4.7,3.4-7.1c2.14-4.82,3.84-9.83,5.92-14.68a.71.71,0,0,1,.07-.09l80.2-179.5L724.2,589.28H724a.68.68,0,0,1,.18.37.74.74,0,0,1,0,.21,12.65,12.65,0,0,0,1.59,3.13,35.85,35.85,0,0,1,1.73,3.38q1.77,3.84,3.67,7.63c1.27,2.51,2.32,5.07,3.45,7.65.5,1.14,1.06,2.27,1.45,3.47.31.94.72,1.9,1,2.86h.06l40.19,89.47h37.31Z"/><path fill="#3a3a3a" d="M1191.63,403.17q-36.36-30.62-100.47-30.62H965.81v30.73c2.82.15,5.63.34,8.4.39,9,.16,18-.08,27-.16v-.34h89q49.75,0,76.07,21.77t26.32,62.43q0,39.72-26.32,61.48t-76.07,21.77h-88.93l-.1,0a.74.74,0,0,1-.38-.12h-.14a.78.78,0,0,1-.23,0,.64.64,0,0,1-.24,0h-.06a.93.93,0,0,1-.24,0,.54.54,0,0,1-.22,0h-.06a.61.61,0,0,1-.18,0,.78.78,0,0,1-.23,0,1.06,1.06,0,0,1-.37-.07.81.81,0,0,1-.33.07.89.89,0,0,1-.34-.08l-.13,0a.78.78,0,0,1-.35-.07h-.06a.7.7,0,0,0-.52,0,.75.75,0,0,1-.35-.07h-.31a.67.67,0,0,1-.34.07H996a.74.74,0,0,1-.3-.08c-3.83,0-7.66-.12-11.57-.22-6.12-.15-12.24.08-18.36.11V707.45h35.4V601.72h90q64.11,0,100.47-30.38t36.36-84Q1228,433.79,1191.63,403.17Z"/><path fill="#3a3a3a" d="M1799.11,372.55v334.9h-29.19L1554.63,435.7V707.45h-35.41V372.55h29.19L1764.18,644.3V372.55Z"/><text transform="translate(1321.74 585.01)" style="font-size:194.66612243652344px;font-family:Montserrat-Medium, Montserrat;font-weight:500">-</text></svg>
