<svg width="500" height="500" xmlns="http://www.w3.org/2000/svg" enable-background="new 0 0 32 32" viewBox="0 0 32 32" id="chrome"><path fill="#efeff0" d="M26,32H6c-3.314,0-6-2.686-6-6V6c0-3.314,2.686-6,6-6h20c3.314,0,6,2.686,6,6v20C32,29.314,29.314,32,26,32z"></path><polygon fill="#efeff0" points="22.978 12.963 22.978 12.963 22.978 12.963"></polygon><circle cx="16.001" cy="16.001" r="3.1" fill="#fff"></circle><path fill="#fff" d="M14.758 23.901l2.055-4.026c-1.858.348-3.652-.671-4.5-2.339l-3.01-5.92C8.481 12.874 8 14.384 8 16 8 20.001 10.929 23.314 14.758 23.901zM19.997 22.927c3.465-2 4.868-6.194 3.465-9.804l-4.506.232c1.223 1.429 1.242 3.491.213 5.072l-3.617 5.562C17.052 24.069 18.597 23.74 19.997 22.927zM12.243 14.758c.616-1.768 2.401-2.822 4.275-2.713l6.623.348c-.678-1.342-1.743-2.51-3.143-3.323C18.73 8.339 17.336 7.991 15.972 8c-2.355.01-4.659 1.061-6.194 2.971L12.243 14.758 12.243 14.758z" ></path><path fill="#fff" d="M8.283,18.111c-0.005-0.018-0.007-0.038-0.012-0.056l-0.002,0L8.283,18.111z"></path></svg>
