<svg xmlns="http://www.w3.org/2000/svg" viewBox="0 0 285 285"><defs></defs><g id="Layer_2" data-name="Layer 2"><g id="Layer_1-2" data-name="Layer 1"><rect fill="#efeff0" class="cls-1" width="285" height="285" rx="35.21"/><path fill="#fff" class="cls-2" d="M203,131.64c-32.8-19.48-87.64-21.53-118.9-11.79a9.4,9.4,0,1,1-5.64-17.94c36.39-10.76,96.35-8.71,134.27,13.84a9.9,9.9,0,0,1,3.59,13.32c-2.56,3.59-8.71,5.13-13.32,2.57m-1,28.7c-2.56,3.58-7.17,5.12-10.76,2.56-27.68-16.91-69.7-22-102-11.79-4.1,1-8.71-1-9.74-5.12s1-8.72,5.13-9.74C122,125,168.12,130.61,199.9,150.09c3.08,1.53,4.61,6.66,2,10.25m-12.3,28.18c-2.05,3.08-5.64,4.1-8.71,2-24.09-14.86-54.33-17.93-90.2-9.73-3.59,1-6.66-1.54-7.69-4.62-1-3.58,1.54-6.66,4.61-7.68,39-8.72,72.78-5.13,99.43,11.27,3.58,1.54,4.1,5.64,2.56,8.71M142.5,40.41C86.13,40.41,40,86.54,40,142.91s46.13,102.5,102.5,102.5S245,199.29,245,142.91A102.47,102.47,0,0,0,142.5,40.41"/></g></g></svg>
